<svg xmlns="http://www.w3.org/2000/svg" width="999.996" height="267.464" viewBox="0 0 999.996 267.464">
  <path id="brush-stroke" d="M310.872,516.052c0-.777-.241-1.264-.535-1.082s-.9-.549-1.352-1.624c-.474-1.134-1.2-1.955-1.741-1.955-.73,0-.789-.162-.281-.774.494-.595.477-.83-.07-1.014s-.536-.455.115-1.248c.631-.768.664-1.063.138-1.24a.971.971,0,0,1-.69-.771c0-.3.246-.387.546-.2s.405-.028.217-.52c-.181-.471-.045-.857.3-.857.46,0,.47-.3.04-1.1-.475-.887-.42-1.1.278-1.1s.737-.142.178-.74a1.139,1.139,0,0,0-1.922.947c.047.266-.206.59-.561.722-.425.157-.537-.18-.327-.983.176-.672.094-1.09-.181-.929a2.4,2.4,0,0,1-1.605-.113c-.876-.322-.618-.489,1.242-.808,1.463-.25,2.346-.695,2.346-1.181,0-.429.483-.78,1.073-.78a2.61,2.61,0,0,0,1.828-1.078c.745-1.063,3.557-2.514,4.468-2.305a18.986,18.986,0,0,0,3.589-.68,60.016,60.016,0,0,1,6.572-1.177c1.9-.214,3.59-.613,3.759-.887a2.092,2.092,0,0,1,1.517-.51,16.744,16.744,0,0,0,4.522-1.644,18.131,18.131,0,0,1,4.246-1.644,1.669,1.669,0,0,0,1.275-.564c.188-.3.061-.552-.282-.552-.765,0-.489-2.469.282-2.523a27.91,27.91,0,0,0,2.973-.731,9.321,9.321,0,0,1,3.768-.355,6.941,6.941,0,0,0,3.1-.2c.964-.3,3.139-.812,4.834-1.144,4.65-.91,7.133-1.67,7.133-2.184,0-.532-28.321-.161-35.333.463-3.694.329-5.1.239-6.625-.422-1.063-.462-2.056-.876-2.208-.92s-1-.38-1.889-.746a4.239,4.239,0,0,0-2.484-.327c-.479.187-7.827.428-16.329.537s-16.576.446-17.943.748-5.461.838-9.1,1.191a42.476,42.476,0,0,0-7.672,1.206,8.835,8.835,0,0,1-3.753.306c-1.483-.143-2.83-.042-2.994.223a.588.588,0,0,1-.812.164c-.283-.175-.514-.055-.514.267s-.186.535-.414.475c-.918-.243-5.659.761-5.659,1.2,0,.539-4.17,1.435-5.747,1.234a2.939,2.939,0,0,0-2.092.979,3.82,3.82,0,0,1-1.982,1.179c-.52.036-2.435.119-4.257.184a28.267,28.267,0,0,0-5.521.756,40.042,40.042,0,0,1-4.294.948c-1.147.171-1.951.528-1.786.795.514.831-.713,1.049-10.3,1.829-.51.041-.882.311-.828.6s-.4.669-1.006.848a11.216,11.216,0,0,0-2.5,1.273c-1,.682-3.094,1.048-7.453,1.3-3.333.2-6.633.329-7.335.3a7.321,7.321,0,0,0-2.972.819c-.963.5-1.843.658-2.036.37-.475-.706-2.419-1.384-1.993-.7.449.726-.089.689-1.558-.108-2.967-1.608-17.012-.386-18.478,1.608-.454.617-.5,1.034-.138,1.155a.821.821,0,0,1,.571.679c0,.269-.348.355-.772.192a.967.967,0,0,0-1.137.293c-.535.866,2.773.741,4.559-.173a16.667,16.667,0,0,1,3.975-1.169c1.366-.224,2.919-.487,3.451-.586s.966.146.966.544c0,.512.687.669,2.346.539,1.814-.142,2.124-.055,1.369.383-.538.312-.853.768-.7,1.014.328.53-2.759,1.063-8.735,1.509-3.355.25-4.45.151-4.822-.436-.349-.551-.483-.57-.49-.069-.012,1.016-3.331.852-4.52-.224-.555-.5-1.01-.679-1.01-.391,0,.317-1.792.373-4.555.143-2.505-.209-6.418-.516-8.7-.684a30.859,30.859,0,0,1-5.954-.946,7.432,7.432,0,0,0-3.188-.379c-.756.144-1.531.009-1.722-.3-.214-.346-.07-.391.375-.117s.589.23.368-.127c-.416-.673-3.049-1.282-6.165-1.427-1.838-.085-2.218-.3-2.268-1.289-.054-1.06.327-1.231,3.589-1.609a36.708,36.708,0,0,1,5.029-.3l1.38.119-1.465-.8c-2.54-1.381-5.017-1.963-9.853-2.318a59.3,59.3,0,0,1-8.281-1.245c-4.539-1.141-20.291-1.228-20.978-.116a.794.794,0,0,1-1.079.294c-.922-.57-11.082-.762-10.736-.2.323.523.241.532-6.981.751a125.742,125.742,0,0,0-14.881,1.3c-3.48.438-5.515.187-7.5-.926-.833-.466-.653-.731,1.353-2a15.512,15.512,0,0,1,6.579-2c5.092-.644,9.95-1.455,13.451-2.245,2.094-.473,2.511-.765,2.292-1.6-.157-.6-.588-.9-1.042-.729-.426.163-.774.022-.774-.314s.435-.615.966-.62c.826-.007.846-.086.138-.544-.524-.338-.581-.538-.155-.544.371-.005.53-.381.354-.84-.222-.578.329-1.119,1.812-1.778l2.131-.947-5.394-.333c-2.967-.183-6.88-.308-8.7-.277s-3.3.025-3.3-.013.5-.642,1.1-1.342,1.1-1.105,1.1-.9.559.007,1.243-.441a19.417,19.417,0,0,1,5.336-1.45,45.079,45.079,0,0,0,6.279-1.406,15.686,15.686,0,0,1,4.187-.791c3.075-.03,10.819-2.044,8.58-2.231a15.826,15.826,0,0,1-1.61-.3c-.607-.14-1.408-.321-1.778-.4-1.263-.277-1.344-.814-.178-1.184a8.934,8.934,0,0,0,2.607-1.707,4.978,4.978,0,0,1,2.675-1.337,2.723,2.723,0,0,0,1.862-.759c.518-.624.062-.824-2.555-1.122-1.752-.2-3.93-.483-4.841-.63-2.167-.35-10.791-.3-11.383.067-.8.494-7.112.727-7.112.262A2.238,2.238,0,0,1,73.2,460.6a2.209,2.209,0,0,0,.828-1.264c0-.317-.163-.413-.363-.213s-.7.086-1.1-.252-.741-.379-.741-.087-.373.528-.828.528c-1.326,0-.962-.591.86-1.4,2.049-.907,1.756-1.287-1.548-2.007-3.013-.656-3.588-1.685-1.427-2.556,2.236-.9,12.741-2.071,18.746-2.087a44.387,44.387,0,0,0,6.582-.382l1.465-.368L94.1,449.229a5.774,5.774,0,0,0-2.507-1.307c-1.309-.028-1.706-.906-1-2.218.741-1.385,5.544-3.875,7.473-3.875.814,0,1.284-.238,1.09-.552a1.752,1.752,0,0,0-1.354-.552,2.208,2.208,0,0,1-1.77-2.346c.208-.984-8.551.116-9.284,1.166-.56.8-14.658,2.9-16.044,2.385l-1.32-.488,1.284-.687a74.085,74.085,0,0,1,10.193-2.172c8.967-1.495,11.149-2.55,5.273-2.55a7.992,7.992,0,0,1-4.006-.761c-.767-.633-1.829-.65-6.3-.1-8.225,1-13,1.694-14.125,2.039-.743.228-.966.065-.828-.607.2-.978,1.909-2.126,4.587-3.083,2.3-.823.872-1.549-2.075-1.051-1.278.216-3.441.567-4.807.781l-2.484.389,2.07-1.984a17.4,17.4,0,0,0,2.07-2.181,15.774,15.774,0,0,0-3.423-.585c-4.452-.5-6.834-1.752-6.8-3.564.016-.956,3.588-2.238,6.911-2.482,1.368-.1,4.475-.577,6.9-1.059a77.137,77.137,0,0,1,8.282-1.126c2.126-.137,5.356-.51,7.177-.83,11.313-1.986,13.859-2.475,14.346-2.755.3-.172-.57-.584-1.932-.915s-2.477-.927-2.477-1.328c0-.929,5.564-2.947,10.615-3.85,2.457-.439,4.274-1.092,4.869-1.75a9.667,9.667,0,0,1,4.209-1.691c4.149-.816,4.037-1.59-.471-3.256-.966-.357-1.645-.937-1.508-1.288.311-.8,2.87-2.019,4.236-2.019.565,0,.873-.248.685-.552s-2.19-.552-4.449-.552c-3.723,0-5.218-.564-3.418-1.291,1.608-.649-6.449-.3-10.429.455-4.956.937-7.652.545-7.652-1.113,0-.764,1.442-1.767,5.419-3.77,3.746-1.887,5.195-2.874,4.693-3.2-.954-.616-.012-1.246,3.69-2.469,5.226-1.726,9.373-4.62,8.828-6.161-.372-1.053,1.665-1.627,10.081-2.842a53.239,53.239,0,0,0,9.31-1.948,16.465,16.465,0,0,1,4.409-1.174c4.1-.492,11.952-2.477,13.179-3.334a5.93,5.93,0,0,1,2.76-.8,9.094,9.094,0,0,0,2.776-.513c.879-.378.654-.491-1.1-.556-4.706-.173-7.2-.637-7.827-1.454a1.685,1.685,0,0,0-1.932-.5c-1.1.3-1.147.267-.307-.259a3.283,3.283,0,0,1,1.932-.454,2.842,2.842,0,0,0,1.7-.308,2.358,2.358,0,0,1,2.1.263,2,2,0,0,0,2.406.077c.661-.413,1.167-.454,1.379-.112.184.3,1.748.55,3.476.56a11.848,11.848,0,0,1,4.522.809c1.654.945,2.208,1.015,2.208.276,0-.3-.387-.552-.861-.552s-.725-.22-.558-.489-.218-.625-.854-.792-1.048-.629-.916-1.029c.243-.737,2.716-1.169,10.366-1.811,6.911-.58,8.833-.892,8.833-1.434,0-.285-.373-.518-.828-.518s-.828-.491-.828-1.1c0-.81.368-1.1,1.38-1.1,1.588,0,1.859-.85.393-1.234a40.841,40.841,0,0,0-6.211.037c-8.368.472-11.715.315-13.465-.632a3.789,3.789,0,0,0-1.97-.656c-.195.12-.251-.481-.126-1.336.274-1.865-.5-2.156-6.171-2.312-3.393-.093-3.656-.177-2.477-.788,1.94-1.005,9.055-2.448,13.3-2.7a12.117,12.117,0,0,0,4.954-1.1c1.568-1.1,2.513-1.112,3.574-.052a5.122,5.122,0,0,0,3.135.816c4.092-.021,19.359-1.574,21.432-2.18,1.936-.566,1.994-.657,1.586-2.468a3.061,3.061,0,0,1,.147-2.452c.394-.394.377-.806-.055-1.326-1.319-1.589.359-1.918,8.416-1.65,6.26.208,8.213.094,9.483-.554,1.344-.685,7.4-1.631,11.537-1.8.607-.025,2.346-.267,3.865-.539l2.76-.494-2.484-.4a65.884,65.884,0,0,0-9.109-.12c-3.644.155-8.861.249-11.594.208a102.2,102.2,0,0,0-11.87.826,179.81,179.81,0,0,1-18.589,1.643,4.411,4.411,0,0,0-2.461.469,3.578,3.578,0,0,1-2.07.553c-.948.039-1.724.276-1.724.528s-.559.3-1.242.108c-.972-.274-1.062-.223-.414.23.714.5.695.581-.138.588-.531.005-.966.285-.966.624,0,.378-.525.272-1.361-.276-1.511-.99-2.174-1.146-1.714-.4.166.269-.192.619-.8.776-.628.164-1.1.014-1.1-.351s-.872-.638-2.07-.638c-1.316,0-2.023.242-1.941.664.089.457-.506.582-1.908.4-2.3-.294-4.566-1.581-4.578-2.6-.006-.435-.2-.381-.544.151-.415.643-.537.48-.544-.726-.011-1.991.9-3.69,1.976-3.69.463,0,.688-.248.5-.552s.108-.571.658-.594a7.527,7.527,0,0,0,4.2-1.217c1.1-.723,3.695-.445,3.695.4,0,.152-.333.149-.74-.008a1.587,1.587,0,0,0-1.518.675c-.671.827-.67.894.006.487.6-.363.694-.239.4.54a1.174,1.174,0,0,0,.32,1.462c1.056.67,1.946.544.985-.14-.623-.443-.3-.516,1.292-.294a5.76,5.76,0,0,0,3.13-.335,1.3,1.3,0,0,1,1.818.041c.652.541.891.481,1.237-.309a3.318,3.318,0,0,0,.341-1.394c-.048-.228.264-.414.694-.414a1.083,1.083,0,0,0,.993-.631c.116-.347.939-.709,1.83-.8a3.634,3.634,0,0,0,2.236-1.016c.339-.464.818-.661,1.064-.438s.291-.029.1-.561c-.427-1.189.629-1.3,1.084-.114.289.754.446.744,1.363-.086.979-.886,1.036-.879,1.044.114.007.881.1.917.544.224.8-1.235.684-1.5-.794-1.874-.937-.235-1.319-.691-1.258-1.5.1-1.289,2.02-2.253,4.236-2.123,2.065.121,3.889-.589,3.889-1.515,0-.6.549-.771,2.07-.66a17.575,17.575,0,0,0,7.315-1.214c.669-.375.616-.473-.276-.507-.607-.023-2.346-.159-3.865-.3-4.695-.44-10.939-.426-13.192.029-1.546.313-2.042.26-1.766-.187.238-.384.088-.508-.391-.325-.454.174-1.187-.331-1.77-1.22-.711-1.086-.8-1.581-.328-1.74.447-.149.339-.478-.329-1-.907-.712-.849-.755.661-.493.911.158,1.346.141.966-.038-1.4-.659-.628-1.337,1.518-1.337,1.394,0,2.211.254,2.217.69.006.508.134.492.483-.059.3-.471.6-.54.822-.187.371.6,1.073.553,2.8-.186a9.578,9.578,0,0,1,2.89-.5c2.288-.046,3.031-1.417.768-1.417-.9,0-1.718-.359-1.9-.828-.214-.559.027-.828.742-.828a1.952,1.952,0,0,0,1.5-.69c.633-.99,2.883-2.162,3.462-1.8a.624.624,0,0,0,.838-.257,2.627,2.627,0,0,1,1.87-.561,21.347,21.347,0,0,0,4.522-.9c2.6-.778,2.837-.957,1.774-1.356-.674-.253-5.284-.426-10.244-.385s-9.344-.126-9.74-.371a.774.774,0,0,0-1.1.165c-.444.718-17.606,1.262-18.032.572-.15-.243-.658-.293-1.129-.112-.58.223-.657.452-.237.712.341.211-.135.383-1.058.383s-1.678-.237-1.678-.528-.379-.213-.841.171-1.018.522-1.234.306.225-.862.98-1.437l1.372-1.044-1.38.265c-1.209.232-1.244.2-.276-.259a7.146,7.146,0,0,1,5.743.172c1.5.828,3.367.555,3.367-.491,0-.482,1.09-.7,3.589-.713,2.252-.013,3.589.206,3.589.586,0,.334.311.2.69-.3.5-.653,1.993-1,5.383-1.259a70.278,70.278,0,0,0,8.177-1.133,37.552,37.552,0,0,1,5.245-.832,24.677,24.677,0,0,0,4.52-.807c2.588-.707,2.3-.735-4.693-.453-4.1.166-7.826.305-8.281.31s-6.17.591-12.7,1.3-13.646,1.37-15.816,1.463-3.833.355-3.694.583-.818.415-2.126.416a63.054,63.054,0,0,0-7.348.8c-4.686.754-15.71,1.532-14.213,1,.381-.135.553-.472.381-.75s.386-.517,1.239-.531a9.356,9.356,0,0,0,3.483-1.074c1.063-.576,2.429-1.279,3.036-1.562,2-.931,34.557-6.318,42.234-6.987,2.277-.2,8.861-.853,14.63-1.455s13.384-1.335,16.922-1.629a61.525,61.525,0,0,0,9.088-1.335c1.919-.578,2.762-.629,3.037-.184.349.564,6.157.41,13.187-.351,1.063-.115,4.417-.364,7.453-.554a141.118,141.118,0,0,0,18.4-2.538,6.728,6.728,0,0,1,2.9-.221c.284.176,4.131-.228,8.548-.9,6.535-.99,8.266-1.091,9.294-.54s2.358.46,7.285-.511c8.2-1.617,18.907-3.718,24.241-4.759,2.429-.474,5.958-1.215,7.843-1.645a31.023,31.023,0,0,1,5.245-.78,17.513,17.513,0,0,0,4.3-.792c2.3-.737,7.018-1.555,19.6-3.4,6.463-.948,7.765-1.167,14.354-2.413,3.036-.574,8.005-1.454,11.042-1.955l7.177-1.185c6.446-1.065,7.674-1.046,8.956.145a3.931,3.931,0,0,1,1.258,1.794c0,.345.186.6.414.561a12.583,12.583,0,0,1,1.676,0c1.055.055,1.171.234.71,1.1-.676,1.263-.135,1.944.876,1.1,1.138-.945.879-.1-.431,1.411a6.156,6.156,0,0,1-3.336,1.713c-1.854.313-2.065.486-1.472,1.2.891,1.073.138,1.14,35.516-3.141,2.429-.294,6.777-.654,9.661-.8s8.1-.526,11.594-.846,8.088-.68,10.214-.8a39.253,39.253,0,0,0,6.048-.791,72.035,72.035,0,0,1,10.586-.606c4.621-.019,8.732-.145,9.134-.28.993-.334,13.931-1.012,17.009-.891a6.676,6.676,0,0,1,3.319.861c1.04.942,3.69,1.036,16.013.57,5.665-.214,10.867-.7,12.575-1.176,2.229-.621,5.926-.791,15.734-.723,7.052.049,18.783-.1,26.071-.328,14.768-.464,13.979-.47,29.26.194,9.894.43,15.6.447,24.292.076,1.518-.065,2.326-.232,1.794-.371s-.966-.512-.966-.83c0-.381,1.55-.468,4.555-.256,2.505.177,10.02.573,16.7.881s15.251.814,19.047,1.126c15.249,1.251,21.065,1.693,28.984,2.2,19.807,1.265,30.248,1.768,41.13,1.985,5.01.1,11.221.351,13.8.557s6.432.354,8.557.327,6.349.195,9.385.493,12.87.652,21.853.786,17.43.485,18.771.781a59.38,59.38,0,0,0,6.776.837c2.386.164,5.118.427,6.073.583a134.019,134.019,0,0,0,15.814,1.127c6.563.2,12.94.687,22.359,1.7,1.518.163,3.63.366,4.693.451s3.8.314,6.073.508,6.128.506,8.557.692a42.174,42.174,0,0,1,4.693.508,25.012,25.012,0,0,0,3.417.5,26.02,26.02,0,0,1,3.948.644,37.44,37.44,0,0,0,5.694.475c7.379.248,7.369.247,7.369,1.139,0,.455.263.828.585.828s.405-.291.185-.646c-.272-.44-.093-.528.565-.276a7.321,7.321,0,0,0,2.181.37c.822,0,1.245.359,1.3,1.1.1,1.32-.2,1.383-1.307.276-1.156-1.156-2.448-1.069-2.06.138.191.594.131.729-.155.349-.318-.42-1.873-.5-4.883-.248a74.468,74.468,0,0,1-16.286-.5c-2.885-.325-6.611-.724-8.281-.888a32.251,32.251,0,0,1-3.681-.507.864.864,0,0,0-.966.627c-.238.62-.762.74-2.021.464a64.225,64.225,0,0,0-8.514-1.106,30.7,30.7,0,0,1-4.195-.575c-.387-.238-7.771-.277-17.888-.095-6.419.116-10.945-.2-14.322-1-1.9-.451-15.214-.645-15.214-.223,0,.217,1.677.575,3.727.794s4.223.5,4.831.617c4.26.84,15.669,1.782,24.844,2.051a18.028,18.028,0,0,1,4.448.487c.534.342,17.439,1.66,18.346,1.431a44.53,44.53,0,0,1,4.533.287c3.521.328,12.512.989,14.768,1.085.816.035.912.747.163,1.21-.537.332-4.7.409-8.465.156a3.966,3.966,0,0,1-2.54-.867c-.334-.541-1.283-.631-3.706-.353a23.391,23.391,0,0,0-3.627.594c-.2.121-.746-.157-1.207-.618s-.969-.625-1.13-.365c-.312.5-11.455.29-14.684-.283a40.874,40.874,0,0,0-4.163-.457,10.131,10.131,0,0,1-3.451-.767c-.975-.522-1.22-.505-1.22.084,0,.434-.738.8-1.794.882a104.1,104.1,0,0,1-15.32-.084c-3.484-.289-4.972-.253-4.433.108,2.176,1.457-1.907,2.176-8.265,1.455-5.637-.639-6.645-.673-9.081-.3a11.675,11.675,0,0,1-3.917-.091c-2.364-.634-14.654-1.755-20.127-1.837-2.581-.039-6.308-.24-8.281-.448s-5.949-.5-8.833-.661-9.717-.649-15.182-1.1-13.6-.979-18.066-1.183c-7.285-.332-8.165-.276-8.481.548-.3.784-1.26.916-6.5.9a67.614,67.614,0,0,0-8.634.424l-2.484.448,4.141.616a53.753,53.753,0,0,0,6.073.6c1.063-.009,5.41.37,9.661.84s12.325,1.132,17.943,1.471,10.766.735,11.442.881,6.265.506,12.422.8c11.065.531,18.818.965,24.72,1.382,1.67.118,7.4.466,12.731.774s10.052.67,10.49.8,1.292.434,1.9.663a14.706,14.706,0,0,0,3.227.571,4.429,4.429,0,0,1,2.763,1.029c.508.7,1.947.9,6.987,1.018a42.664,42.664,0,0,1,6.9.482,23.854,23.854,0,0,0,4.693.663c10.886.852,21.769,1.544,26.776,1.7,3.036.1,9.5.609,14.354,1.139s11.069,1.047,13.8,1.147c18.914.7,34.021,1.576,41.958,2.44,2.733.3,7.523.7,10.644.9s5.807.567,5.967.827-.53.492-1.535.517-2.528.1-3.385.158-1.667-.062-1.8-.275-1.158-.135-2.28.175a19.312,19.312,0,0,1-5.654.2c-1.988-.2-12.558-.462-23.49-.581s-23.974-.376-28.984-.573c-8.93-.349-11.461-.136-5.6.473a13.4,13.4,0,0,1,3.222.574c.394.394-1.625,1.368-3.3,1.592-1.951.261-2.567.961-.9,1.021.734.026,4.564.279,8.511.562s11.711.661,17.253.841c9.109.295,10.076.419,10.076,1.294,0,1.214,2.223,1.5,15.617,2.018,5.4.208,9.95.588,10.108.844a5.161,5.161,0,0,0,2.707.466c4.536,0,3.264,1.524-2.307,2.766a21.745,21.745,0,0,1-4.693.536c-6.724-.373-4.96.714,2.583,1.592,3.036.353,7.26.763,9.385.91s5.976.515,8.557.818,7.8.714,11.594.914c4.674.247,7.079.6,7.453,1.087.306.4,2.276.884,4.417,1.083,2.126.2,4.113.663,4.417,1.034s2.366.842,4.584,1.047a16.429,16.429,0,0,1,5.27,1.183c.78.511,3.168.9,6.457,1.054,7.093.33,12.651.952,12.959,1.451.324.524-4.51,1.272-5.253.813-.3-.188-.554-.107-.554.181s.87.686,1.932.886c2.1.394,2.495,1.08.966,1.673-1.8.7.721,1.807,6.4,2.806,4.767.839,7.78,1.877,5.584,1.923-2.064.043,1.122,1.016,4.439,1.356a13.6,13.6,0,0,1,4.222.9,14.768,14.768,0,0,0,4.133,1.095c5.336.859,5.278,1.55-.165,1.978-2.034.16-3.893.633-4.452,1.134-.785.7-1.744.786-5.245.459-7.119-.665-8.528-.535-9.6.881-.523.693-.843,1.434-.712,1.647a13.076,13.076,0,0,0,3.959.773,16.376,16.376,0,0,1,4.273.82,10.941,10.941,0,0,0,3.174.824c3.958.589,3.146,1.369-1.426,1.369a14.647,14.647,0,0,0-4.467.414c-.23.228-2.545.414-5.146.414-3.288,0-4.8.21-4.965.69s.429.691,1.879.693a19.32,19.32,0,0,1,4.049.509,51.505,51.505,0,0,0,6.605.856,19.428,19.428,0,0,1,5.3.866c.342.284.767.372.944.195s.9-.115,1.605.137c.991.354.4.539-2.581.81a42.5,42.5,0,0,0-9.661,1.938c-1.348.515.748,1.082,7.039,1.9,3.112.406,5.659.885,5.659,1.065s1.615.225,3.589.1c2.884-.184,3.589-.07,3.589.578,0,1-1.747,2.637-2.8,2.626-.649-.007-.641-.1.043-.544.7-.455.682-.536-.155-.544a1.478,1.478,0,0,0-1.312.848c-.28.73-1.278.814-6.746.568-6.851-.308-8.535.057-7.273,1.578,2.114,2.547,10.735,5.278,16.661,5.278,3.58,0,5.45.67,5.45,1.952,0,.642-.883.806-4.279.8a33.578,33.578,0,0,1-6.487-.595,104.89,104.89,0,0,0-12.717-.832c-10.221-.243-10.511-.22-10.593.86a1.865,1.865,0,0,0,1.778,2.018c.3.049,2.685.491,5.293.983a192.807,192.807,0,0,0,23.864,3.085c7.184.461,9.635,1.093,8.892,2.295a.606.606,0,0,1-.836.172c-.29-.179-.459,0-.376.405s-.277.7-.808.655-.841.117-.695.354-.578.587-1.609.781c-2.228.418-2.756,1.413-1.615,3.042.608.868.673,1.386.239,1.908-.711.857-.247,1.444,1.144,1.444.557,0,1.012.1,1.012.231a6.382,6.382,0,0,0,.366,1.186c.337.877-.034.925-4.555.589-2.707-.2-5.853-.514-6.991-.694-1.648-.261-2.07-.152-2.07.533a1.789,1.789,0,0,1-.89,1.359c-1.264.707-.505,3.888,1.08,4.528,1.133.457,1.137.484.086.554-1.1.074-1.1.074,0,.548,1.077.463-.427.661-6.073.8-2.355.057-4.141.8-4.141,1.723,0,.493-.572.794-1.518.8a13.279,13.279,0,0,0-2.773.344c-1.177.315-1.194.382-.276,1.079a4.914,4.914,0,0,0,2.489.76,17.168,17.168,0,0,1,5.153,1.95,16.279,16.279,0,0,0,5.448,1.932c3.346,0,8.564.7,8.307,1.119-.14.227.167.379.684.337a1.115,1.115,0,0,1,1.136.876c.251,1.215-3.009,3.309-4.69,3.013-.673-.118-1.313.056-1.424.387-.26.781-6.7,1-9.281.318a105.3,105.3,0,0,0-12.56-.678c-9.828-.139-12.727.143-9.052.88.835.168,2.636.558,4,.867a27.779,27.779,0,0,0,4.831.586c1.291.013,2.346.272,2.346.576s.389.552.864.552a5.273,5.273,0,0,1,2,.607c1.121.6,1.119.614-.174,1.258-2.265,1.129-1.563,2.194,2.243,3.4,1.953.621,3.667,1.49,3.809,1.932a2.437,2.437,0,0,0,.747,1.123c.844.554-.166,2.257-1.122,1.891-.483-.185-.726-.185-.539,0s-.287.965-1.053,1.73a4.992,4.992,0,0,1-3.754,1.483c-1.3.05-2.263.254-2.14.452s-2.154.239-5.06.091c-4.225-.216-5.469-.1-6.21.566-1.028.929-6.45,1.312-9.278.656-1.08-.251-1.868-.173-2.1.207a2.221,2.221,0,0,1-1.678.608c-1.661,0-3.049.53-3.049,1.163,0,.271.36.493.8.493a1.676,1.676,0,0,1,1.269.837c.291.519,2.449,1.222,5.686,1.852,6.379,1.241,11.074,3.138,10.63,4.3a.856.856,0,0,1-1.1.506c-.432-.166-.647-.077-.477.2s-.343,1.273-1.139,2.219c-1.065,1.266-1.74,1.627-2.557,1.368-.615-.2-.971-.128-.8.151s-.553.527-1.609.557a37.482,37.482,0,0,0-5.8,1l-3.875.95L990,454.319a4.46,4.46,0,0,0,1.744,1.313,10.473,10.473,0,0,1,2.405.9c1.817.862,1.86.952,1.056,2.18-.529.807-.634,1.407-.284,1.623a.665.665,0,0,1,.2.916c-.228.37-.526.307-.837-.176s-.628-.551-.9-.186a7.422,7.422,0,0,1-2.07,1.362l-1.656.8,1.747.188c1.892.2,2.9,1.62,1.532,2.146a1.307,1.307,0,0,1-1.148.018c-.168-.168-1.132.159-2.143.727a15.483,15.483,0,0,1-3.936,1.426,6.786,6.786,0,0,0-2.841,1.137c-.969.968-1.348.947-6.477-.365-4.6-1.177-5.9-1.068-7.79.659-1.066.974-1.5,1.022-4.38.489-3.784-.7-10.912-.789-10.506-.132a14.474,14.474,0,0,0,4.311,1.146c5.643.962,6.279,1.169,5.352,1.742-1.606.993,5.587,3.336,12.617,4.111a10.747,10.747,0,0,1,3.719.813c.147.238-.254,1.1-.89,1.9-1.07,1.36-1.09,1.547-.268,2.455a4.005,4.005,0,0,1,.889,1.285c0,.682-9.349-.3-12.422-1.3-4.419-1.445-13.368-2.5-14.195-1.673-.437.437-.441.813-.014,1.328.577.7,1.463.993,8.825,2.966,2.3.615,3.451,1.2,3.451,1.756,0,.7-.651.772-4.1.46-2.624-.238-4.223-.166-4.449.2-.194.314-.049.571.324.571s.548.129.391.286c-.37.37-8.189-1.271-8.966-1.882-.611-.48-8.673-1.722-10.393-1.6-.531.038-.966.379-.966.759a4.837,4.837,0,0,1-.286,1.435c-.271.707,6.471,2.137,18.089,3.835a26.575,26.575,0,0,1,5.174,1.3,11.809,11.809,0,0,0,3.728.839c2.5.005,6.091,1.1,5.511,1.678-.269.269-3.631.559-7.471.646s-6.942.2-6.891.251,1.319.576,2.82,1.165c2.613,1.026,2.675,1.1,1.481,1.739-.935.5-1.934.52-4,.077-3.36-.721-3.8-.73-3.8-.082,0,.28.742.671,1.65.871,3.018.663,2.364,1.382-1.256,1.382a13.8,13.8,0,0,0-5.273.867,4.381,4.381,0,0,1-2.959.479c-1.575-.5-27.5-.69-27.193-.2.642,1.039-6.6,1.034-12.78-.01-12.515-2.113-23.163-3.314-30.032-3.387-3.8-.041-9.51-.415-12.7-.832s-8.868-1.015-12.622-1.328-6.984-.665-7.177-.782a32.879,32.879,0,0,0-4.492-.565c-2.277-.194-5.01-.458-6.073-.586-2.212-.267-12.285-.829-19.6-1.093-5.291-.191-13.33-.7-18.771-1.186-1.822-.163-8.9-.4-15.734-.532s-14.906-.439-17.943-.688-11.434-.428-18.662-.4c-10.93.046-13.229.192-13.664.869s-.6.7-1.019.043q-.5-.77-2.128-.444a2.956,2.956,0,0,1-2.236-.278,4.724,4.724,0,0,0-2.427-.721,16.707,16.707,0,0,1-2.927-.443c-3.308-.98-6.756-1.265-8.144-.673-1.115.475-3.9-.086-3.513-.708.142-.229-2.519-.483-5.912-.565-9.138-.22-10.086-.32-11.12-1.178-.841-.7-.925-.666-.758.29.127.728-.08,1.011-.641.878a11.587,11.587,0,0,0-2.07-.207c-.683-.006-1.242-.2-1.242-.435s-.4-.578-.89-.765c-.646-.248-.8-.105-.558.522.228.595.119.728-.353.429a26.887,26.887,0,0,0-5.929-.608c-6.067-.2-5.165-.2-33.677-.1-11.994.042-23.343-.1-25.221-.322a14.852,14.852,0,0,0-4.342-.043c-.94.361-18.975,1.073-24.516.968-4.333-.082-9.248,2.466-6.514,3.377.407.136.126.526-.69.957a6.138,6.138,0,0,0-1.685,1.193c-.609.926-5.3,1.443-6.628.731-.839-.449-3.062-.61-6.557-.476-2.909.112-12.462.335-21.23.495s-16.545.443-17.282.628a54.249,54.249,0,0,1-6.965.421c-3.093.047-6.121.364-6.728.705-1.087.611-6.207,1.613-7.064,1.383a11.937,11.937,0,0,0-4.806.175,13.333,13.333,0,0,1-3.036.326c-.607-.051-1.6-.136-2.208-.19a59.289,59.289,0,0,0-6.349.551c-2.885.357-6.319.643-7.632.637a6.816,6.816,0,0,0-3.036.511,7.652,7.652,0,0,1-2.444.906c-1.469.314-1.794.214-1.794-.551,0-.828-.457-.89-4-.544-2.2.215-7.978.448-12.836.518a90.092,90.092,0,0,0-11.807.776c-1.636.357-3.095.648-3.242.648s.041.373.419.828a3.846,3.846,0,0,0,2.552.828,3.987,3.987,0,0,1,1.865.231,5.642,5.642,0,0,0,.335,1.1c.46,1.2-1.095,1.139-2.322-.088-.7-.7-1.025-.771-1.191-.273-.126.379-.457.548-.734.377s-.5-.111-.5.135-.559.477-1.242.514-4.472.349-8.419.693-11.9.724-17.667.846-11.111.357-11.87.524c-2.572.564-16.714,1.872-24.292,2.247-14.042.694-24.688,2.7-26.883,5.071a4.537,4.537,0,0,1-2.765,1.367c-7.144.232-17.065.976-21.419,1.606-1.822.264-5.018.632-7.1.818s-5.037.575-6.562.864-2.863.526-2.973.526-.2-.636-.2-1.413Zm0-5.023c0-.6-.245-.649-1.084-.2-.647.346-.955.916-.764,1.414.247.643.5.688,1.084.2a2.18,2.18,0,0,0,.764-1.414Zm93.026-8.211c2.16-.775,2.105-.786-2.484-.517-10.51.616-13.8.929-13.8,1.309,0,.72,13.963.041,16.286-.792Zm-256.442-6.667c0-.119-.373-.217-.828-.217s-.828.241-.828.535.373.392.828.217S147.456,496.27,147.456,496.151Zm40.026-1.873c.193-.312-.259-.552-1.039-.552a2.36,2.36,0,0,0-1.721.552c-.193.312.259.552,1.039.552A2.36,2.36,0,0,0,187.482,494.277Zm-26.224-2.825c0-.57-.661-.623-1.887-.153-1.385.532-1.014,1.195.507.9C160.637,492.059,161.258,491.721,161.258,491.453Zm312.388-.09c1.884-.525,2.143-.726,1.214-.946-1.473-.349-19.038.389-28.452,1.2-2.558.219,17.2.754,21.255.576a33,33,0,0,0,5.982-.825Zm19.137-1.7c.607-.144-.511-.241-2.484-.216-4.711.059-6.576.566-3.589.976a10.741,10.741,0,0,0,3.589-.1C491.058,490.105,492.176,489.807,492.783,489.664Zm-352.321.162c1.137-.033,1.129-.062-.147-.572-1.505-.6-2.8-.3-2.8.649,0,.346.392.478.873.293a7.623,7.623,0,0,1,2.07-.37Zm360.615-.621c.148-.148-.835-.31-2.184-.361s-2.624.185-2.834.524c-.268.434.381.541,2.184.361a10.532,10.532,0,0,0,2.834-.524Zm431.716-6.521c.211-.342-.67-.527-2.314-.487-2.357.058-2.469.113-1,.487C931.9,483.3,932.413,483.3,932.793,482.684ZM81.862,474.577a1.111,1.111,0,0,0-1.058.044c-.183.183.143.314.725.29.643-.026.774-.157.334-.334Zm6.521-.727c1.11-.355,1.164-.445.276-.458a6.462,6.462,0,0,0-2.208.458C85.044,474.454,86.5,474.454,88.383,473.85Zm7.408.217a1.515,1.515,0,0,0,.873-1.328c0-.846-.347-.949-2.346-.7-2.537.317-4.192,1.258-2.213,1.258a2.015,2.015,0,0,1,1.523.552c.393.635.932.69,2.163.217Zm896.9-9.6c0-.3-.435-.548-.966-.544-.826.007-.846.086-.138.544C992.631,465.138,992.693,465.138,992.693,464.465ZM109.466,442a1.111,1.111,0,0,0-1.058.044c-.183.183.143.314.725.29.643-.027.774-.157.334-.334Zm-4.52-1.611c0-.9-1.535-1-3.553-.234-2.2.835-1.675,1.422,1.068,1.2C104.128,441.231,104.946,440.911,104.946,440.393Zm10.255.4c-.551-.892-2.526-1.119-2.526-.291,0,.465.567.776,1.413.776C114.865,441.277,115.366,441.059,115.2,440.792Zm-4.182-.619c.616-.4.3-.537-1.242-.544-1.139-.005-2.07.24-2.07.544,0,.7,2.224.7,3.312,0Zm920.321-64.594a.552.552,0,1,0-.552.552A.554.554,0,0,0,1031.34,375.579Zm4-10.3a2.13,2.13,0,0,0-1.38,0c-.38.153-.069.278.69.278s1.07-.125.69-.278Zm-8.281-6.649a7.866,7.866,0,0,0-2.484,0c-.683.132-.124.239,1.242.239S1027.745,358.759,1027.061,358.627Zm-25.534-4.457c0-.236-2.05-.724-4.555-1.084s-5.153-.827-5.883-1.037c-.825-.238-1.2-.176-.991.164.186.3,2.523.862,5.193,1.249s5.1.781,5.408.877l.69.219c.076.024.138-.15.138-.386Zm-805.211-5.091c.986-.424.945-.479-.381-.513a2.478,2.478,0,0,0-1.827.513C193.7,349.738,194.783,349.738,196.316,349.079Zm801.347-3.235c0-.261-2.493-.758-5.541-1.1-6.864-.78-8.1-.8-7.395-.095.295.295,3.263.757,6.6,1.027s6.124.526,6.2.569.138-.136.138-.4Zm-832.32-6.611c.156-.253-.077-.46-.52-.46s-.8.207-.8.46a.494.494,0,0,0,.52.46A1.06,1.06,0,0,0,165.343,339.234Zm73.863-1.021a1.111,1.111,0,0,0-1.058.043c-.183.183.143.314.725.29.643-.027.774-.157.334-.334Zm-85.676-.727c0-.3-.435-.548-.966-.544-.826.007-.846.086-.138.544C153.468,338.159,153.531,338.159,153.531,337.485Zm2.208-.861c0-.134-.248-.243-.552-.243a.571.571,0,0,0-.552.585c0,.322.248.431.552.243s.552-.451.552-.585Zm31.469-3.844a51.223,51.223,0,0,1,5.245-.847,44.633,44.633,0,0,0,5.8-1.044c1.063-.321,1.932-.563,1.932-.537,0,.212,3.782-.97,5.659-1.768,2.848-1.211,3.028-2.141.414-2.141-1.35,0-1.932-.25-1.932-.828,0-.849,2.471-1.185,6.572-.893a24.823,24.823,0,0,0,8.052-1.5c.872-.507-1.914-1.078-5.549-1.138a16.932,16.932,0,0,0-6.868,1.325,21.516,21.516,0,0,1-4.659,1.389c-.906.007-.974.112-.336.516a1.425,1.425,0,0,0,1.242.235c.242-.15.44-.037.44.25,0,.494-1.208.843-5.425,1.567a3.134,3.134,0,0,0-2.135,1.092c-.244.635-.456.648-1.165.073-.726-.59-.814-.563-.542.166.238.636.006.845-.863.778a11.176,11.176,0,0,0-3.02.409c-1.27.347-2.074.3-2.622-.155-.445-.369-.79-.418-.79-.111,0,.609-4.206,2.351-5.677,2.351a.87.87,0,0,0-.948.755c0,.562.74.715,2.9.6a26.33,26.33,0,0,0,4.279-.54Zm22.711-20.022a1.413,1.413,0,0,0-1.307.342c-.41.41-.194.481.724.241C210.082,313.147,210.332,312.9,209.918,312.759Zm666.838-2.187c0-.228-.755-.467-1.676-.531-.959-.067-1.535.11-1.347.414.385.623,3.024.725,3.023.117ZM211.5,307.093l1.38-.043-1.288-.516c-1.455-.583-3.957-.134-3.957.71,0,.308.555.408,1.242.224a13.886,13.886,0,0,1,2.622-.375Zm660.842.119c0-.253-.373-.46-.828-.46s-.828.207-.828.46.373.46.828.46S872.34,307.466,872.34,307.213Zm2.312.083a1.111,1.111,0,0,0-1.058.043c-.183.184.143.314.725.29.643-.026.774-.157.334-.334Zm-653.666-1.1a1.111,1.111,0,0,0-1.058.043c-.183.183.143.314.725.29.643-.026.774-.157.334-.333Zm-61.937-.727a.552.552,0,1,0-.552.552A.554.554,0,0,0,159.049,305.465Zm14.354-1.448c0-.619-1.037-.076-1.334.7-.291.758-.21.792.493.208A2.987,2.987,0,0,0,173.4,304.017Zm5.521.068c0-.455-.1-.828-.217-.828s-.36.373-.535.828-.077.828.217.828S178.924,304.54,178.924,304.085ZM901.7,285.213a1.111,1.111,0,0,0-1.058.043c-.183.183.143.314.725.29.643-.026.774-.157.334-.333ZM393.385,274.034a.6.6,0,0,0-.186-.825c-.277-.171-.646.06-.82.514-.343.894.486,1.151,1.005.311ZM131.336,510.977c-.318-.38-.361-.7-.1-.707s.017-.287-.551-.617c-1.457-.846-.166-1.572,2.689-1.511,1.491.031,1.85.163,1.1.406-1.052.342-1.836,1.748-.966,1.732,1.621-.03,2.792-.751,2.539-1.565-.247-.795-.181-.788.513.054.943,1.144,5.144,1.355,5.507.276.184-.548.409-.544,1.091.018,1.075.887,1.709,3.042.8,2.7a.844.844,0,0,1-.468-.982c.125-.52-.128-.466-.843.181-.816.738-2,.9-5.88.813-3.085-.071-5.069-.364-5.436-.8Zm-7.579-1.217a.925.925,0,0,1,.485-1.682c.63,0,1.183,1.559.666,1.878a1.316,1.316,0,0,1-1.151-.2Zm11.681-4.442c-.611-.978-.547-1.114.557-1.188.686-.046,1.62-.125,2.075-.174,1.473-.16,1.75.344.779,1.417C137.622,506.729,136.306,506.708,135.438,505.318Zm334.434-4.108c0-.134.248-.4.552-.585s.552-.078.552.243a.571.571,0,0,1-.552.585C470.121,501.454,469.872,501.344,469.872,501.21Zm6.478-.377c.374-.377.82-.547.99-.377s-.136.479-.681.686C475.872,501.442,475.809,501.378,476.35,500.833Zm-296.321-1.52a2.285,2.285,0,0,1,.852-1.191c.662-.549,1-.559,1.514-.045s.479.778-.161,1.183c-1.041.658-2.2.686-2.2.053Zm623.3-5.036c0-.3.358-.552.8-.552a1.46,1.46,0,0,1,1.137.552c.188.3-.17.552-.8.552S803.329,494.58,803.329,494.277Zm-9.385-.586c0-.628,1.483-.692,1.861-.08.149.241-.209.474-.8.518s-1.066-.153-1.066-.437Zm-547.5-.891c-.5-1.295.26-1.485,2.168-.544,1,.491,1.561.929,1.258.975C247.54,493.58,246.7,493.474,246.441,492.8Zm477.388-1.283c0-.3.109-.552.243-.552s.4.248.585.552.078.552-.243.552A.571.571,0,0,1,723.829,491.516Zm-7.959-.478c-.238-.385-.283-.849-.1-1.031.494-.494,1.033.233.766,1.033-.187.561-.317.561-.665,0Zm2.025.112c-1.13-.456-.782-1.211.414-.9.607.159,1.1.508,1.1.776C719.412,491.555,718.981,491.589,717.894,491.15Zm264.677-2.763c-.635-.635-.4-1.288.46-1.288a.831.831,0,0,1,.828.828c0,.862-.653,1.1-1.288.46Zm-685.155-3.382c-.149-.241.215-.474.807-.519s.934.152.757.437A.9.9,0,0,1,297.416,485.006Zm4.976-.948a1.49,1.49,0,0,1,1.223-.865c.5-.023,2.025-.154,3.391-.291,1.792-.179,2.253-.093,1.656.31-.683.461-.691.56-.046.567.43.005.627.163.438.353a12.9,12.9,0,0,1-3.661.547C302.63,484.846,302.129,484.743,302.392,484.057Zm-225.3-1.336c-.408-.661.63-1.315,1.366-.861.617.382.212,1.375-.561,1.375A1.1,1.1,0,0,1,77.089,482.721Zm5.221-14.36a1.175,1.175,0,0,1,.546-.857c.313-.193.406.028.217.52C82.706,468.98,82.31,469.155,82.31,468.361Zm4.049-.284c0-.442.211-.673.469-.514a.581.581,0,0,1,.151.8C86.533,469.089,86.359,469.008,86.359,468.077Zm962.091-72.071c-.455-.294-.58-.535-.276-.535a3.317,3.317,0,0,1,1.38.535c.455.294.58.535.276.535A3.318,3.318,0,0,1,1048.45,396.006ZM141.383,355.035c0-.239.5-.435,1.1-.435s1.1.233,1.1.518-.5.48-1.1.435S141.383,355.274,141.383,355.035Zm23.119-8.108-1.295-1.048,3.3-.439c1.817-.241,4.608-.453,6.2-.47s2.9-.2,2.9-.407c0-.43,3.289.426,3.8.99.187.2-.427.227-1.364.049a5.326,5.326,0,0,0-3.312.527,12.362,12.362,0,0,1-4.508.9c-1.594.029-2.9.253-2.9.5,0,.791-1.5.471-2.829-.6Zm-6.959.163a1.11,1.11,0,0,1,1.058-.043c.44.176.31.307-.334.334-.582.024-.908-.107-.725-.29ZM147.5,339.464c-.024-.582.107-.908.29-.725a1.111,1.111,0,0,1,.044,1.058C147.657,340.238,147.526,340.107,147.5,339.464Zm15.078-4.64c.154-.249-.228-.889-.849-1.421-1.112-.952-1.075-.993,2.286-2.583,4.048-1.915,4.421-1.958,4.421-.511a.977.977,0,0,1-.966,1.113c-.783.007-.818.1-.185.5a2.865,2.865,0,0,0,1.794.3c.557-.107,1.013.058,1.013.368s-.807.518-1.794.464-2.291-.069-2.9-.034c-.92.054-.966.154-.276.6.708.457.688.536-.138.544-.531.005-.966.257-.966.561s-.387.552-.861.552-.735-.2-.58-.454Zm7.059-4.455c-.555-.343-.533-.573.1-1.1.893-.741,1.605-.094.99.9A.782.782,0,0,1,169.637,330.369Zm-19.144-23.248c-.188-.3.031-.552.487-.552a1.5,1.5,0,0,1,1.169.552c.188.3-.031.552-.487.552A1.5,1.5,0,0,1,150.492,307.121ZM161.8,304.65c.8-.958,1.115-1.058,1.115-.348,0,.271-.408.65-.906.841-.758.291-.792.21-.208-.493Zm780.258-8.909c.647-.647,4.182-1.154,4.9-.7.41.26.5.5.194.536C944.175,295.915,941.806,295.992,942.058,295.74Zm-3.352-.681c-.459-.291-.116-.452.966-.452.923,0,1.678.207,1.678.46,0,.588-1.713.582-2.644-.009Zm-14.194-.7c-2.363-.529-8.1-.909-18.821-1.245-3.671-.115-7.206-.494-7.855-.841-.706-.378-3.18-.57-6.161-.479a49.565,49.565,0,0,1-4.981.027,15.758,15.758,0,0,1,3.594-1.81c.185,0,.182.248-.005.552-.2.322.362.552,1.348.552.929,0,1.689-.248,1.689-.552a.571.571,0,0,1,.585-.552c.322,0,.4.311.17.69-.307.51-.207.544.381.131a3.5,3.5,0,0,1,1.9-.5c.607.035,2.423.1,4.035.145s2.816.268,2.675.5,1.273.378,3.142.333a13.394,13.394,0,0,1,4.364.434q.967.515.966-.09c0-.332.3-.419.667-.192a23.712,23.712,0,0,0,5.383.563c2.594.083,4.715.18,4.715.216s1.242.146,2.76.244a20.7,20.7,0,0,1,2.9.3,5.929,5.929,0,0,0,1.656.487c.439.094-2.152,1.7-2.622,1.623-.152-.024-1.27-.266-2.484-.538Zm-22.359-2.76c0-.266-.482-.483-1.072-.483a1.825,1.825,0,0,0-1.37.483c-.164.266.318.483,1.072.483S902.152,291.86,902.152,291.594Zm29.531-1.6a.636.636,0,0,0-.861-.243c-.283.175-.514.069-.514-.234,0-1.069.891-1.086,1.55-.029.367.588.556,1.068.419,1.068s-.4-.253-.595-.561Zm-11.818-2.153c-.582-.582-1.173-.943-1.314-.8a11.156,11.156,0,0,1-2.944.441c-2.561.176-5.737-.961-4.932-1.766.645-.645,4.457-.494,5.29.209a2.532,2.532,0,0,0,3.1.047c.586-.586,3.4-.457,3.792.173.53.858-.258,2.755-1.144,2.755a3.511,3.511,0,0,1-1.849-1.058Zm5.7.421c-.235-.38-.152-.488.205-.267a.685.685,0,0,0,.946-.191c.514-.832,1.2-.68,1.2.267,0,.973-1.781,1.117-2.353.191ZM280.1,284.152a1.11,1.11,0,0,1,1.058-.043c.44.176.31.307-.334.334-.582.024-.908-.107-.725-.29Zm111.371-15.677c0-.3.11-.552.243-.552s.4.248.585.552.078.552-.243.552A.571.571,0,0,1,391.476,268.476Zm12.874.056c-.891-.655-.678-1.6.3-1.339.626.164,1.027-.061,1.085-.609.051-.478.133-1.241.184-1.7a1.166,1.166,0,0,1,1.1-.9,10.114,10.114,0,0,0,1.426-.183c.228-.063,1.159-.314,2.07-.559,2.026-.544,3.126-1.358,2.722-2.012-.166-.269.188-.49.788-.49a1.541,1.541,0,0,1,1.371.69c.195.479.419.509.736.1a2.589,2.589,0,0,1,3.392-.659c.716.579.783.565.392-.084-.359-.6-.241-.7.491-.414a5.883,5.883,0,0,0,1.71.37c.41,0,.9.471,1.078,1.047a1.019,1.019,0,0,0,1.325.788c1.409-.368,1.263-1.734-.157-1.472-1.123.207-1.124.2-.046-.313a8.947,8.947,0,0,1,2.973-.563,49.876,49.876,0,0,0,5.245-.58c4.813-.772,16.911-2.124,22.423-2.507,2.581-.179,5.811-.424,7.177-.544,2.879-.254,8.562-.657,16.01-1.137,2.885-.186,6.86-.475,8.833-.642,4.744-.4,12.211-.432,13.25-.053a28.265,28.265,0,0,0,3.174.726c1.29.233,2.346.607,2.346.83a5.643,5.643,0,0,1-1.365,1.771c-1.111,1.111-1.881,1.355-4.143,1.311-1.652-.033-2.7.172-2.592.5.1.307,2.1.579,4.437.6,3.671.039,6.117.753,5.282,1.543-.373.353-7.693.7-7.691.367a11.826,11.826,0,0,0-3.727-.126,41.21,41.21,0,0,1-6.895-.329,11.273,11.273,0,0,0-3.429-.24,8.708,8.708,0,0,1-2.63.378,22,22,0,0,0-3.893.543,2.69,2.69,0,0,1-2.227-.155c-.386-.32-3.1-.639-6.039-.71-3.634-.087-5.224-.317-4.983-.722.2-.327-.066-.252-.582.166-.645.523-1.638.648-3.183.4-1.475-.236-2.126-.165-1.9.206.391.633.318.645-4.685.779a23.331,23.331,0,0,0-4.831.531c-.683.239-1.242.231-1.242-.017s-.621-.451-1.38-.451-1.38.186-1.38.414-.387.414-.861.414-.731-.21-.572-.466c.383-.62-5.288.291-5.7.915-.754,1.143-11.086,2.3-11.086,1.243a.588.588,0,0,0-.585-.588c-.322,0-.442.231-.267.514.5.808-.771,1.306-1.592.624-.551-.457-.81-.429-1.017.11-.179.466-1.087.678-2.549.6-1.249-.07-2.271.105-2.271.389,0,.913-2.836.313-3.387-.716-.293-.547-.773-.847-1.066-.666a.589.589,0,0,0-.251.786c.155.251-.081.6-.525.766a.972.972,0,0,1-1.139-.227c-.2-.327-.909-.215-1.812.288-1.7.946-6.98,1.952-7.654,1.457Zm-7.9-2.508c0-.97.331-1.112.8-.347a.636.636,0,0,1-.243.861C396.7,266.729,396.445,266.5,396.445,266.024Zm2.08-.954a1.413,1.413,0,0,1,1.307-.342c.413.138.163.388-.583.583-.918.24-1.134.168-.724-.241Zm190.182-1.4c-.683-.132-1.242-.429-1.242-.661,0-.676,2.4-.308,2.637.4.119.356.133.613.031.571s-.743-.183-1.426-.314ZM577.252,262.4c1.518-.652,2.389-.652,1.38,0a3.409,3.409,0,0,1-1.656.5C576.429,262.888,576.523,262.716,577.252,262.4Zm3.344.051c-.17-.275.188-.371.8-.212,1.289.337,1.452.712.309.712A1.418,1.418,0,0,1,580.6,262.454ZM509.523,261.2c-.869-.873-.475-.934,6.349-.975,4-.024,7.829-.151,8.506-.282s1.359-.029,1.517.225,1.047.411,1.976.346c2.512-.174,2.524.63.013.869-1.187.113-2.041.015-1.9-.218.453-.733-.4-.461-1.262.4-.939.939-3.271,1.108-3.787.275-.227-.368-.706-.359-1.424.025-1.222.654-2.373.21-1.811-.7.246-.4.109-.435-.405-.112a13.587,13.587,0,0,1-3.812.78c-2.39.231-3.234.1-3.963-.638Zm44.265.646c0-.3.11-.552.243-.552s.4.248.585.552.078.552-.243.552A.571.571,0,0,1,553.788,261.85Zm-22.083-1.1c-.5-.322-.566-.539-.171-.544a1.283,1.283,0,0,1,1,.544C532.957,261.431,532.766,261.431,531.705,260.746Zm215.634-.075c.286-.462-1.818-1.006-2.244-.58-.594.594-3.048.706-3.048.139,0-.35-1.571-.435-4.279-.23-3.32.251-4.712.122-6.211-.577-1.063-.5-1.514-.787-1-.648s1.009.037,1.1-.227a1.468,1.468,0,0,1,1-.659,2.375,2.375,0,0,0,1.234-.732c.223-.3.409-.008.414.657.008,1.143.091,1.166,1.527.416,1.362-.711,1.6-.694,2.283.171.727.917.748.917.431,0-.257-.746-.028-.966,1-.966a2.39,2.39,0,0,1,1.9.966c.312.536.57.659.579.276.018-.723,1.673-1,1.673-.276,0,.228,1.878.4,4.174.382s4.3.169,4.449.414a2.032,2.032,0,0,0,1.458.446c.946,0,1.044.138.492.69-.691.691-7.356,1.017-6.937.339Zm9.063-.017a.491.491,0,0,1,.414-.5c.228-.021,1.209-.141,2.18-.268,2.184-.286,2.962.661.861,1.048C757.78,261.319,756.4,261.207,756.4,260.654Zm-39.749-1.84c0-.3-.932-.552-2.07-.552a4.174,4.174,0,0,0-2.476.552q-.406.552-.415,0c-.012-.692-3.32-.855-3.32-.164,0,.278-.226.366-.5.2-.526-.325-5.382-.847-10.54-1.132a19.053,19.053,0,0,1-3.036-.292c0-.37-7.264-.376-7.729-.006-.83.66-6.349,1.12-6.349.53,0-.281-.373-.51-.828-.51s-.828.24-.828.533c0,.333-3.889.435-10.352.271-5.693-.144-10.951-.259-11.683-.255a14.472,14.472,0,0,1-3.174-.5c-1.108-.306-1.843-.308-1.843-.005,0,.5-1.931.42-2.455-.1a30.15,30.15,0,0,0-5.583-.078c-3.519.13-5.571-.022-6.088-.451-.608-.5-.782-.48-.789.11-.006.479-.158.545-.414.181-.244-.346-3.384-.6-7.859-.645-4.1-.038-16.521-.211-27.6-.385s-25.306-.349-31.607-.389-11.456-.229-11.457-.419-1.367-.346-3.037-.346-3.035.186-3.035.414-.263.414-.585.414-.431-.248-.243-.552-.046-.552-.519-.552-.861-.248-.861-.552a.571.571,0,0,0-.585-.552c-.322,0-.431.248-.243.552.2.326-.407.549-1.486.544-1.383-.007-1.625-.139-1-.544.612-.4.637-.537.1-.544-.562-.007-.539-.2.1-.837a3.221,3.221,0,0,1,1.972-.828c.629,0,1.144-.265,1.144-.589,0-.35.477-.438,1.173-.217.79.251,1.05.172.8-.239-.208-.336-.231-.611-.051-.611s.515.511.746,1.135l.42,1.135,1.456-1.145c1-.785,1.577-.95,1.84-.524s.518.4.847-.128c.376-.609,4.164-.745,20.22-.728,10.866.012,24.229.18,29.695.375s14.534.5,20.151.675c20.284.636,25.509.867,25.964,1.148,1.016.628,5.464,1.184,6.138.768a.812.812,0,0,1,1.147.217c.32.493.567.451.972-.167.3-.455.548-.58.553-.276.006.348,3.42.527,9.256.485,9.222-.067,24.98.825,24.982,1.413,0,.171,1.926.282,4.279.248,4.032-.059,13.321.7,14.968,1.218.607.192.619.4.06,1.072s-.549.789.076.592c.422-.133,1.462-.395,2.309-.581.949-.208,1.418-.6,1.222-1.012-.176-.371-.03-.285.324.19.52.7,1.23.785,3.709.448a9.322,9.322,0,0,1,4.034.1,7.215,7.215,0,0,0,2.522.593c1.432.069,1.45.1.223.326-1.03.194-1.155.363-.552.744.854.54.136.608-7.64.721-2.712.039-4.555-.157-4.554-.486ZM556.2,253.848c-.174-.454-.539-.687-.811-.519-.779.482-.576,1.344.317,1.344C556.2,254.673,556.39,254.349,556.2,253.848ZM524,255.735c.568-1.062.534-1.182-.247-.882s-.815.178-.253-.871l.652-1.218.549,1.231c.63,1.412,1.77,1.617,2.236.4.175-.455.119-.828-.125-.828s-.443-.376-.443-.835c0-.679.5-.769,2.668-.481,1.823.242,2.668.156,2.668-.269,0-.346.874-.623,1.965-.623,1.288,0,1.836.209,1.59.607-.267.432-.04.428.783-.013.962-.515,1.1-.478.836.221-.177.462-.545.841-.816.841a.527.527,0,0,0-.493.552c0,1.151,1,.486,1.656-1.1.768-1.854.788-1.864,2.172-1.124.7.374.914.957.723,1.955-.15.782-.055,1.35.211,1.262a.678.678,0,0,1,.759.379c.163.319-1.149.578-3.212.633-3.189.086-3.54-.02-4.091-1.23-.594-1.3-2.634-1.876-2.634-.739,0,.322.246.433.546.247s.408.021.23.485a.874.874,0,0,1-1.188.487c-.568-.218-.737-.115-.484.295.444.719-1.391,1.249-3.521,1.018a5.2,5.2,0,0,0-2.388.341c-.9.44-.94.363-.35-.739Zm15.1-2.074c.156-.253-.067-.46-.5-.46s-.652.207-.5.46.379.46.5.46S538.945,253.914,539.1,253.661Zm-22.54,2.179c-.166-.269.193-.619.8-.777q1.1-.287.763-1.167c-.186-.484-.1-.879.182-.879.757,0,.635,1.8-.178,2.616S516.97,256.5,516.562,255.84Zm3.385-1.535c.155-.4.354-.736.44-.736s.285.331.44.736-.043.736-.44.736S519.792,254.71,519.947,254.305Zm2.129-1.547a4.584,4.584,0,0,1,2.281-.828c1.317-.02,2.156.818,1.331,1.328a.484.484,0,0,1-.726-.317c-.159-.477-.5-.478-1.391-.005-1.7.908-2.764.78-1.5-.179Zm-7.336-.075a1.11,1.11,0,0,1,1.058-.044c.44.176.31.307-.334.333-.582.024-.908-.106-.725-.29Zm29.111-.218c-.708-.457-.688-.536.138-.544.531-.005.966.24.966.544,0,.673-.062.673-1.1,0Zm-2.965-.841c-.263-.686-.122-.733.769-.257,1.28.685,1.4,1.1.323,1.1A1.321,1.321,0,0,1,540.886,251.624Z" transform="translate(-50 -250)" fill="#9276bc" opacity="0.67"/>
</svg>
